<?xml version="1.0" encoding="utf-8"?>
<!-- Generator: Adobe Illustrator 18.0.0, SVG Export Plug-In . SVG Version: 6.00 Build 0)  -->
<!DOCTYPE svg PUBLIC "-//W3C//DTD SVG 1.1//EN" "http://www.w3.org/Graphics/SVG/1.1/DTD/svg11.dtd">
<svg version="1.1" id="Layer_1" xmlns="http://www.w3.org/2000/svg" xmlns:xlink="http://www.w3.org/1999/xlink" x="0px" y="0px"
	 viewBox="0 0 309.6 132.1" enable-background="new 0 0 309.6 132.1" xml:space="preserve">
<g>
	<path fill="#A4CDCB" d="M43.6,0v8.4H27v46.8H16.7V8.4H0V0H43.6z"/>
	<path fill="#A4CDCB" d="M66.7,55.2H56.4V0h10.3V55.2z"/>
	<path fill="#A4CDCB" d="M113,34.8c0.4,0.9,0.7,1.8,1.1,2.7c0.4-0.9,0.7-1.8,1.1-2.7c0.4-0.9,0.8-1.7,1.2-2.6l16.3-30.6
		c0.2-0.4,0.4-0.7,0.6-0.9c0.2-0.2,0.5-0.4,0.7-0.5c0.3-0.1,0.6-0.2,0.9-0.2c0.3,0,0.7,0,1.2,0h7.8v55.2h-9.1V19.5
		c0-0.7,0-1.4,0.1-2.2s0.1-1.6,0.2-2.4l-16.7,31.3c-0.4,0.7-0.9,1.3-1.5,1.7c-0.6,0.4-1.3,0.6-2.1,0.6h-1.4c-0.8,0-1.5-0.2-2.1-0.6
		c-0.6-0.4-1.1-0.9-1.5-1.7L92.9,14.8c0.1,0.8,0.2,1.7,0.2,2.5s0.1,1.5,0.1,2.2v35.7h-9.1V0h7.8c0.5,0,0.9,0,1.2,0
		c0.3,0,0.6,0.1,0.9,0.2c0.3,0.1,0.5,0.3,0.7,0.5c0.2,0.2,0.4,0.5,0.6,0.9l16.5,30.7C112.3,33.1,112.7,34,113,34.8z"/>
	<path fill="#A4CDCB" d="M195,0v8.2h-24.5v15.3h19.3v7.9h-19.3V47H195v8.2h-34.8V0H195z"/>
	<path fill="#A4CDCB" d="M255,55.2H251v-54h3.9V55.2z"/>
	<path fill="#A4CDCB" d="M303.6,7.7c-0.2,0.4-0.6,0.7-1,0.7c-0.3,0-0.7-0.2-1.3-0.7c-0.5-0.5-1.2-1-2.1-1.6s-2-1.1-3.4-1.6
		c-1.3-0.5-3-0.7-5-0.7c-2,0-3.7,0.3-5.2,0.8S283,6,282,6.9c-1,1-1.8,2.1-2.3,3.4c-0.5,1.3-0.8,2.6-0.8,4c0,1.8,0.4,3.4,1.2,4.5
		c0.8,1.2,1.8,2.2,3.1,3.1c1.3,0.8,2.7,1.5,4.3,2.1c1.6,0.6,3.3,1.1,5,1.7c1.7,0.6,3.4,1.2,5,1.8c1.6,0.7,3.1,1.5,4.3,2.5
		c1.3,1,2.3,2.3,3.1,3.8c0.8,1.5,1.2,3.3,1.2,5.6c0,2.3-0.4,4.4-1.2,6.4c-0.8,2-1.9,3.7-3.4,5.2c-1.5,1.5-3.3,2.6-5.4,3.5
		c-2.1,0.9-4.6,1.3-7.3,1.3c-3.6,0-6.6-0.6-9.2-1.9c-2.6-1.3-4.8-3-6.7-5.2l1.1-1.7c0.3-0.4,0.7-0.6,1.1-0.6c0.2,0,0.5,0.2,0.9,0.5
		c0.4,0.3,0.8,0.7,1.3,1.1c0.5,0.4,1.1,0.9,1.8,1.4c0.7,0.5,1.5,1,2.5,1.5c1,0.4,2,0.8,3.3,1.1c1.2,0.3,2.6,0.5,4.2,0.5
		c2.1,0,4.1-0.3,5.7-1c1.7-0.6,3.1-1.5,4.2-2.7c1.2-1.1,2.1-2.5,2.7-4c0.6-1.5,0.9-3.2,0.9-4.9c0-1.9-0.4-3.5-1.2-4.7
		c-0.8-1.2-1.8-2.3-3.1-3.1c-1.3-0.8-2.7-1.5-4.3-2.1s-3.3-1.1-5-1.6c-1.7-0.5-3.4-1.1-5-1.8c-1.6-0.7-3.1-1.5-4.3-2.5
		c-1.3-1-2.3-2.3-3.1-3.9c-0.8-1.5-1.2-3.5-1.2-5.8c0-1.8,0.3-3.6,1-5.2c0.7-1.7,1.7-3.2,3-4.4c1.3-1.3,3-2.3,4.9-3.1
		c2-0.8,4.2-1.2,6.7-1.2c2.8,0,5.3,0.4,7.5,1.3s4.2,2.3,6.1,4.1L303.6,7.7z"/>
	<path fill="#A4CDCB" d="M33.6,111.2c0.4,0.9,0.7,1.8,1.1,2.7c0.4-0.9,0.7-1.8,1.1-2.7c0.4-0.9,0.8-1.7,1.2-2.6L53.3,78
		c0.2-0.4,0.4-0.7,0.6-0.9c0.2-0.2,0.4-0.4,0.7-0.5c0.3-0.1,0.6-0.2,0.9-0.2c0.3,0,0.7,0,1.2,0h7.8v55.2h-9V95.9
		c0-0.7,0-1.4,0.1-2.2c0-0.8,0.1-1.6,0.2-2.4L39,122.6c-0.4,0.7-0.9,1.3-1.5,1.7c-0.6,0.4-1.3,0.6-2.1,0.6H34
		c-0.8,0-1.5-0.2-2.1-0.6c-0.6-0.4-1.1-0.9-1.5-1.7L13.4,91.2c0.1,0.8,0.2,1.7,0.2,2.5c0,0.8,0.1,1.5,0.1,2.2v35.7h-9V76.3h7.8
		c0.4,0,0.8,0,1.2,0c0.3,0,0.6,0.1,0.9,0.2c0.3,0.1,0.5,0.3,0.7,0.5c0.2,0.2,0.4,0.5,0.7,0.9l16.5,30.7
		C32.8,109.5,33.2,110.3,33.6,111.2z"/>
	<path fill="#A4CDCB" d="M135.3,103.9c0,4-0.7,7.8-2,11.2c-1.3,3.4-3.2,6.4-5.7,9c-2.4,2.5-5.4,4.5-8.8,5.9
		c-3.4,1.4-7.2,2.1-11.4,2.1s-8-0.7-11.4-2.1c-3.4-1.4-6.4-3.4-8.9-5.9c-2.5-2.5-4.4-5.5-5.7-9c-1.3-3.4-2-7.2-2-11.2
		c0-4,0.7-7.8,2-11.2c1.3-3.4,3.2-6.4,5.7-9c2.5-2.5,5.4-4.5,8.9-5.9s7.3-2.1,11.4-2.1s8,0.7,11.4,2.1c3.4,1.4,6.4,3.4,8.8,5.9
		c2.4,2.5,4.3,5.5,5.7,8.9C134.6,96.1,135.3,99.9,135.3,103.9z M124.8,103.9c0-3-0.4-5.7-1.2-8.1c-0.8-2.4-2-4.4-3.4-6.1
		c-1.5-1.7-3.3-3-5.5-3.9c-2.2-0.9-4.6-1.3-7.3-1.3c-2.7,0-5.1,0.4-7.3,1.3c-2.2,0.9-4,2.2-5.5,3.9c-1.5,1.7-2.7,3.7-3.5,6.1
		c-0.8,2.4-1.2,5.1-1.2,8.1s0.4,5.7,1.2,8.1c0.8,2.4,2,4.4,3.5,6.1c1.5,1.7,3.3,2.9,5.5,3.8c2.2,0.9,4.6,1.3,7.3,1.3
		c2.7,0,5.1-0.4,7.3-1.3c2.1-0.9,4-2.2,5.5-3.8c1.5-1.7,2.6-3.7,3.4-6.1C124.4,109.7,124.8,107,124.8,103.9z"/>
	<path fill="#A4CDCB" d="M156.6,76.4c0.3,0,0.6,0.1,0.8,0.2c0.2,0.1,0.5,0.3,0.7,0.5c0.2,0.2,0.5,0.5,0.8,0.9l29,36.9
		c-0.1-0.9-0.2-1.8-0.2-2.6c-0.1-0.9-0.1-1.6-0.1-2.4V76.3h9.1v55.2h-5.3c-0.8,0-1.5-0.1-2-0.4c-0.5-0.3-1.1-0.7-1.6-1.4L158.9,93
		c0.1,0.8,0.1,1.6,0.2,2.4c0,0.8,0.1,1.5,0.1,2.2v33.9h-9.1V76.3h5.4C156,76.3,156.3,76.4,156.6,76.4z"/>
	<path fill="#A4CDCB" d="M249.4,76.3v8.2h-24.5v15.3h19.3v7.9h-19.3v15.6h24.5v8.2h-34.8V76.3H249.4z"/>
	<path fill="#A4CDCB" d="M289.5,110.1v21.5h-10.3v-21.5l-20.1-33.7h9c0.9,0,1.6,0.2,2.1,0.7c0.5,0.4,1,1,1.3,1.6l10.1,18.4
		c0.6,1.1,1.1,2.1,1.5,3.1c0.4,1,0.8,1.9,1.2,2.9c0.3-1,0.7-1.9,1.1-2.9c0.4-1,0.9-2,1.5-3.1l10-18.4c0.3-0.6,0.7-1.1,1.2-1.6
		c0.6-0.5,1.3-0.7,2.1-0.7h9.1L289.5,110.1z"/>
</g>
</svg>
