<?xml version="1.0" encoding="utf-8"?>
<!-- Generator: Adobe Illustrator 18.0.0, SVG Export Plug-In . SVG Version: 6.00 Build 0)  -->
<!DOCTYPE svg PUBLIC "-//W3C//DTD SVG 1.1//EN" "http://www.w3.org/Graphics/SVG/1.1/DTD/svg11.dtd">
<svg version="1.1" id="Layer_1" xmlns="http://www.w3.org/2000/svg" xmlns:xlink="http://www.w3.org/1999/xlink" x="0px" y="0px"
	 viewBox="0 0 405.7 174.8" enable-background="new 0 0 405.7 174.8" xml:space="preserve">
<circle fill="#302F33" cx="318.3" cy="87.4" r="87.4"/>
<polygon fill="#A4CDCB" points="290,134.4 320.1,82.2 350.2,134.4 "/>
<polygon fill="#FFFFFF" points="350.2,46.4 320.1,98.5 290,46.4 "/>
<g>
	<path fill="#A4CDCB" d="M17.5,45.5v32.3h-5.7V45.5H1.6v-5.1h26.2v5.1H17.5z"/>
	<path fill="#A4CDCB" d="M34.3,77.8V40.5h5.7v37.3H34.3z"/>
	<path fill="#A4CDCB" d="M76.9,77.8v-25L68.3,71h-4.2l-8.8-18.2v25h-5.7V40.5h5.7l10.9,23.2l10.7-23.2h5.7v37.3H76.9z"/>
	<path fill="#A4CDCB" d="M92.3,77.8V40.5h23.9v5.1H98v10.9h15.5v5H98v11.2h18.2v5.1H92.3z"/>
	<path fill="#A4CDCB" d="M136.5,77.8V40.5h5.7v37.3H136.5z"/>
	<path fill="#A4CDCB" d="M161.8,78.1c-5.6,0-9.6-1.3-13.2-4.9l3.8-3.7c2.7,2.7,5.7,3.6,9.5,3.6c4.9,0,7.7-2.1,7.7-5.7
		c0-1.6-0.5-3-1.5-3.9c-0.9-0.9-1.9-1.3-4.1-1.6l-4.4-0.6c-3-0.4-5.5-1.5-7.1-3c-1.8-1.7-2.7-4.1-2.7-7.1c0-6.5,4.7-11,12.5-11
		c4.9,0,8.4,1.3,11.6,4.2l-3.6,3.6c-2.3-2.2-5-2.9-8.1-2.9c-4.4,0-6.8,2.5-6.8,5.8c0,1.4,0.4,2.6,1.4,3.5c0.9,0.8,2.5,1.5,4.2,1.7
		l4.2,0.6c3.5,0.5,5.4,1.4,7,2.8c2,1.8,3,4.5,3,7.7C175.3,74,169.7,78.1,161.8,78.1z"/>
	<path fill="#A4CDCB" d="M32.2,139v-25l-8.6,18.2h-4.2L10.6,114v25H4.9v-37.3h5.7l10.9,23.2l10.7-23.2h5.7V139H32.2z"/>
	<path fill="#A4CDCB" d="M69.4,135.3c-2.6,2.6-5.9,4-9.9,4c-4,0-7.2-1.4-9.8-4c-3.7-3.7-3.6-7.8-3.6-15c0-7.2-0.1-11.3,3.6-15
		c2.6-2.6,5.8-4,9.8-4c4,0,7.3,1.4,9.9,4c3.7,3.7,3.6,7.8,3.6,15C73,127.5,73.1,131.6,69.4,135.3z M65.1,108.7
		c-1.3-1.4-3.4-2.3-5.6-2.3c-2.2,0-4.2,0.9-5.6,2.3c-1.8,2-2.2,4.1-2.2,11.6c0,7.5,0.4,9.6,2.2,11.6c1.3,1.4,3.4,2.3,5.6,2.3
		c2.2,0,4.2-0.9,5.6-2.3c1.8-2,2.2-4.1,2.2-11.6C67.3,112.8,67,110.7,65.1,108.7z"/>
	<path fill="#A4CDCB" d="M104.3,139l-17.3-26.3V139h-5.7v-37.3h5.2l17.3,26.2v-26.2h5.7V139H104.3z"/>
	<path fill="#A4CDCB" d="M119.3,139v-37.3h23.9v5.1h-18.2v10.9h15.5v5h-15.5v11.2h18.2v5.1H119.3z"/>
	<path fill="#A4CDCB" d="M163.1,123.6V139h-5.7v-15.4l-11.2-22h6.2l7.8,16.4l7.8-16.4h6.2L163.1,123.6z"/>
</g>
<polygon fill="#A4CDCB" points="290,134.4 320.1,82.2 350.2,134.4 "/>
<polygon opacity="0.5" fill="#FFFFFF" points="350.2,46.4 320.1,98.5 290,46.4 "/>
</svg>
