<?xml version="1.0" encoding="utf-8"?>
<!-- Generator: Adobe Illustrator 18.0.0, SVG Export Plug-In . SVG Version: 6.00 Build 0)  -->
<!DOCTYPE svg PUBLIC "-//W3C//DTD SVG 1.1//EN" "http://www.w3.org/Graphics/SVG/1.1/DTD/svg11.dtd">
<svg version="1.1" id="Layer_1" xmlns="http://www.w3.org/2000/svg" xmlns:xlink="http://www.w3.org/1999/xlink" x="0px" y="0px"
	 viewBox="0 0 404.3 184.6" enable-background="new 0 0 404.3 184.6" xml:space="preserve">
<g>
	<path fill="#A4CDCB" d="M14,39.1v39h-3.9v-39H0v-3.7h24.2v3.7H14z"/>
	<path fill="#A4CDCB" d="M30.3,78.1V35.4h3.9v42.7H30.3z"/>
	<path fill="#A4CDCB" d="M70.2,78.1V48.8L70,50.6L60,78.1h-2L48,50.6l-0.2-1.8v29.3h-3.8V35.4h2l13,35L59,72l0.1-1.6l12.9-35h2v42.7
		H70.2z"/>
	<path fill="#A4CDCB" d="M83.8,78.1V35.4h24v3.7H87.6v15.9H104v3.7H87.6v15.8h20.2v3.7H83.8z"/>
	<path fill="#A4CDCB" d="M129.2,78.1V35.4h3.9v42.7H129.2z"/>
	<path fill="#A4CDCB" d="M166.2,68.2c0,1.4-0.3,2.8-0.9,4.1c-0.6,1.3-1.4,2.4-2.4,3.3c-1,1-2.1,1.7-3.4,2.2
		c-1.3,0.5-2.7,0.8-4.1,0.8h-3.1c-1.4,0-2.8-0.3-4.1-0.8c-1.3-0.5-2.4-1.3-3.4-2.2c-1-1-1.8-2.1-2.3-3.3c-0.6-1.3-0.9-2.6-0.9-4.1
		v-1.7l3.9-0.6v2.3c0,1,0.2,1.8,0.6,2.7c0.4,0.8,0.9,1.5,1.6,2.2c0.7,0.6,1.4,1.1,2.3,1.5c0.9,0.4,1.8,0.5,2.7,0.5h2.7
		c1,0,1.8-0.2,2.7-0.5c0.9-0.4,1.6-0.8,2.3-1.5c0.7-0.6,1.2-1.3,1.6-2.2c0.4-0.8,0.6-1.7,0.6-2.7v-1.3c0-1.5-0.3-2.7-0.9-3.7
		s-1.3-1.8-2.3-2.5s-2-1.3-3.2-1.7c-1.2-0.5-2.4-1-3.7-1.4c-1.3-0.5-2.5-1-3.7-1.6c-1.2-0.6-2.3-1.3-3.2-2.2c-1-0.9-1.7-1.9-2.3-3.2
		c-0.6-1.3-0.9-2.8-0.9-4.6v-0.8c0-1.4,0.3-2.8,0.8-4.1c0.5-1.3,1.3-2.4,2.2-3.3c1-1,2.1-1.7,3.4-2.2c1.3-0.5,2.6-0.8,4.1-0.8h2.7
		c1.4,0,2.8,0.3,4.1,0.8c1.3,0.5,2.4,1.3,3.3,2.2c1,1,1.7,2.1,2.3,3.3c0.5,1.3,0.8,2.6,0.8,4.1v1.1L162,47v-1.7c0-1-0.2-1.8-0.5-2.7
		c-0.4-0.8-0.8-1.5-1.4-2.2s-1.3-1.1-2.2-1.5c-0.8-0.4-1.7-0.5-2.7-0.5h-2.4c-1,0-1.8,0.2-2.7,0.5c-0.8,0.4-1.5,0.8-2.2,1.5
		c-0.6,0.6-1.1,1.3-1.5,2.2c-0.4,0.8-0.5,1.7-0.5,2.7v0.8c0,1.4,0.3,2.5,0.9,3.5s1.3,1.7,2.3,2.4c1,0.7,2,1.2,3.2,1.7
		c1.2,0.5,2.4,1,3.7,1.5c1.3,0.5,2.5,1.1,3.7,1.7c1.2,0.6,2.3,1.3,3.2,2.2s1.7,2,2.3,3.2c0.6,1.3,0.9,2.8,0.9,4.6V68.2z"/>
	<path fill="#A4CDCB" d="M30,149.2V120l-0.3,1.8l-9.9,27.5h-2l-10-27.5L7.5,120v29.3H3.7v-42.7h2l13,35l0.1,1.6l0.1-1.6l12.9-35h2
		v42.7H30z"/>
	<path fill="#A4CDCB" d="M66.1,143.4c-0.6,1.3-1.3,2.4-2.2,3.3c-1,1-2.1,1.7-3.3,2.2c-1.3,0.5-2.6,0.8-4.1,0.8h-3
		c-1.4,0-2.8-0.3-4.1-0.8c-1.3-0.5-2.4-1.3-3.4-2.2c-1-1-1.7-2.1-2.2-3.3c-0.6-1.3-0.8-2.6-0.8-4.1v-22.9c0-1.4,0.3-2.8,0.8-4.1
		c0.5-1.3,1.3-2.4,2.2-3.3c1-1,2.1-1.7,3.4-2.2c1.3-0.5,2.6-0.8,4.1-0.8h3c1.4,0,2.8,0.3,4.1,0.8s2.4,1.3,3.3,2.2
		c1,1,1.7,2.1,2.2,3.3c0.5,1.3,0.8,2.6,0.8,4.1v22.9C66.9,140.8,66.7,142.2,66.1,143.4z M63.1,116.4c0-1-0.2-1.8-0.5-2.7
		c-0.4-0.8-0.9-1.5-1.5-2.2c-0.6-0.6-1.3-1.1-2.2-1.5c-0.8-0.4-1.7-0.5-2.7-0.5h-2.7c-1,0-1.8,0.2-2.7,0.5c-0.8,0.4-1.5,0.8-2.2,1.5
		c-0.6,0.6-1.1,1.3-1.5,2.2c-0.4,0.8-0.5,1.7-0.5,2.7v22.9c0,1,0.2,1.8,0.5,2.7c0.4,0.8,0.9,1.5,1.5,2.2c0.6,0.6,1.3,1.1,2.2,1.5
		c0.8,0.4,1.7,0.5,2.7,0.5h2.7c1,0,1.8-0.2,2.7-0.5c0.8-0.4,1.5-0.8,2.2-1.5c0.6-0.6,1.1-1.3,1.5-2.2c0.4-0.8,0.5-1.7,0.5-2.7V116.4
		z"/>
	<path fill="#A4CDCB" d="M98.1,149.2l-17.8-31.1l-0.4-1.8v32.9h-3.9v-42.7h2l17.8,31.1l0.4,1.8v-32.9h3.9v42.7H98.1z"/>
	<path fill="#A4CDCB" d="M109.9,149.2v-42.7h24v3.7h-20.2v15.9h16.4v3.7h-16.4v15.8h20.2v3.7H109.9z"/>
	<path fill="#A4CDCB" d="M152.5,128.8v20.4h-3.9v-20.4l-11-22.3h4.1l8.8,17.7l8.8-17.7h4.1L152.5,128.8z"/>
</g>
<g>
	<circle fill="#302F33" cx="312" cy="92.3" r="92.3"/>
	<g>
		<polygon fill="#A4CDCB" points="277.4,44.6 325.1,92.3 277.4,140 		"/>
		<polygon fill="#FFFFFF" points="346.6,140 298.9,92.3 346.6,44.6 		"/>
		<polygon fill="#A4CDCB" points="277.4,44.6 325.1,92.3 277.4,140 		"/>
		<polygon opacity="0.5" fill="#FFFFFF" points="346.6,140 298.9,92.3 346.6,44.6 		"/>
	</g>
</g>
</svg>
