<?xml version="1.0" encoding="utf-8"?>
<!-- Generator: Adobe Illustrator 18.0.0, SVG Export Plug-In . SVG Version: 6.00 Build 0)  -->
<!DOCTYPE svg PUBLIC "-//W3C//DTD SVG 1.1//EN" "http://www.w3.org/Graphics/SVG/1.1/DTD/svg11.dtd">
<svg version="1.1" id="Layer_1" xmlns="http://www.w3.org/2000/svg" xmlns:xlink="http://www.w3.org/1999/xlink" x="0px" y="0px"
	 viewBox="0 0 544.7 113.3" enable-background="new 0 0 544.7 113.3" xml:space="preserve">
<g>
	<rect x="181.6" y="0" fill="#302F33" width="363.2" height="113.3"/>
	<rect x="0" y="0" fill="#302F33" width="363.2" height="113.3"/>
</g>
<g>
	<g>
		<path fill="#FFFFFF" d="M424.8,73.6c-3.1,3.1-7.1,4.8-11.9,4.8c-4.8,0-8.7-1.7-11.8-4.8c-4.4-4.4-4.4-9.4-4.4-18.1
			c0-8.7-0.1-13.7,4.4-18.1c3.1-3.1,7-4.8,11.8-4.8c4.8,0,8.8,1.7,11.9,4.8c4.4,4.4,4.3,9.4,4.3,18.1
			C429.1,64.1,429.2,69.1,424.8,73.6z M419.6,41.5c-1.6-1.7-4.1-2.8-6.7-2.8c-2.7,0-5.1,1.1-6.7,2.8c-2.2,2.4-2.7,4.9-2.7,14
			s0.4,11.6,2.7,14c1.6,1.7,4.1,2.8,6.7,2.8c2.7,0,5.1-1.1,6.7-2.8c2.2-2.4,2.7-4.9,2.7-14S421.8,43.9,419.6,41.5z"/>
		<path fill="#FFFFFF" d="M446,39.1v13.7h18.7v6.1H446V78h-6.8V32.9H468v6.1H446z"/>
		<path fill="#FFFFFF" d="M483,39.1v13.7h18.7v6.1H483V78h-6.8V32.9H505v6.1H483z"/>
	</g>
</g>
<g>
	<path fill="#FFFFFF" d="M78.4,73.6c-3.1,3.1-7.1,4.8-11.9,4.8c-4.8,0-8.7-1.7-11.8-4.8c-4.4-4.4-4.4-9.4-4.4-18.1
		c0-8.7-0.1-13.7,4.4-18.1c3.1-3.1,7-4.8,11.8-4.8c4.8,0,8.8,1.7,11.9,4.8c4.4,4.4,4.3,9.4,4.3,18.1C82.7,64.1,82.8,69.1,78.4,73.6z
		 M73.2,41.5c-1.6-1.7-4.1-2.8-6.7-2.8c-2.7,0-5.1,1.1-6.7,2.8c-2.2,2.4-2.7,4.9-2.7,14s0.4,11.6,2.7,14c1.6,1.7,4.1,2.8,6.7,2.8
		c2.7,0,5.1-1.1,6.7-2.8c2.2-2.4,2.7-4.9,2.7-14S75.4,43.9,73.2,41.5z"/>
	<path fill="#FFFFFF" d="M120.5,78L99.6,46.3V78h-6.8V32.9h6.3l20.8,31.6V32.9h6.8V78H120.5z"/>
</g>
<rect x="181" y="0" fill="#A4CDCB" width="182.8" height="113.3"/>
</svg>
